<svg xmlns="http://www.w3.org/2000/svg" xmlns:xlink="http://www.w3.org/1999/xlink" fill="none" version="1.1" width="302" height="180" viewBox="0 0 302 180"><g><g><g><g><path d="M0,168C0,174.627,5.37258,180,12,180L290,180C296.627,180,302,174.627,302,168L302,12C302,5.37258,296.627,0,290,0L12,0C5.37258,0,0,5.37258,0,12L0,168Z" fill="#FAFAF9" fill-opacity="1"/></g><g><ellipse cx="20" cy="20" rx="8" ry="8" fill="#111925" fill-opacity="0.15000000596046448"/></g><g><rect x="36" y="15" width="180" height="10" rx="5" fill="#111925" fill-opacity="0.05000000074505806"/></g><g><rect x="12" y="42" width="60" height="126" rx="6" fill="#111925" fill-opacity="0.05000000074505806"/></g><g><rect x="22" y="121" width="41" height="10" rx="5" fill="#111925" fill-opacity="0.05000000074505806"/></g><g><rect x="22" y="136" width="41" height="10" rx="5" fill="#111925" fill-opacity="0.05000000074505806"/></g><g><rect x="81" y="42" width="207" height="126" rx="6" fill="#111925" fill-opacity="0.029999999329447746"/></g><g><rect x="95" y="58" width="180" height="10" rx="5" fill="#111925" fill-opacity="0.029999999329447746"/></g><g><rect x="95" y="82" width="180" height="10" rx="5" fill="#111925" fill-opacity="0.029999999329447746"/></g><g><rect x="95" y="106" width="77" height="10" rx="5" fill="#111925" fill-opacity="0.029999999329447746"/></g><g><rect x="95" y="126" width="180" height="29" rx="4" fill="#111925" fill-opacity="0.05000000074505806"/></g></g><g><ellipse cx="42.5" cy="73.5" rx="20.5" ry="20.5" fill="#FFFFFF" fill-opacity="1"/></g><g><g><path d="M30.0763841,89.5952C33.74842,92.4494,38.27606,94,42.937799999999996,94C46.2833,94,49.579899999999995,93.201,52.5497,91.6702Q52.1321,87.9817,54.1109,85.6679C54.1356,85.6389,54.1607,85.6096,54.186,85.58C56.7134,82.6266,61.8166,76.6632,53.1806,67.40194C49.994299999999996,63.75201,49.700199999999995,61.41426,48.3771,60.0992801Q48.0554,59.9517474,47.7949,60.0234524Q46.5928,60.354258,46.6909,65.35127C46.6983,65.72713,46.3554,66.01766,45.9807,65.96589Q42.7723,65.52262,39.96486,66.70629C39.81902,66.76778,39.64673,66.71071,39.56761,66.5743Q39.22884,65.9902,38.25541,64.48653C37.55409,63.4032,36.82055,62.34146,35.89251,61.44214Q34.70754,60.293832,34.11653,60.391527Q32.49949,60.392258,31.32313,67.98941Q29.682092,81.9093,30.0763841,89.5952Z" fill-rule="evenodd" fill="#BBBBBB" fill-opacity="1"/></g><g><path d="M45.730701429748535,74.41844419555665C46.027551429748534,74.41844419555665,46.318671429748534,74.49964419555664,46.57216142974853,74.65314419555664C45.91472142974854,73.59825119555664,44.706701429748534,72.95639419555664,43.37877142974853,72.95639419555664C41.34886142974854,72.95639419555664,39.703301429748535,74.46094419555664,39.703301429748535,76.31690419555665C39.703301429748535,78.17287419555664,41.34886142974854,79.67742419555664,43.37877142974853,79.67742419555664C45.09906142974854,79.67742419555664,46.57625142974854,78.60169419555665,46.961091429748535,77.06868419555664C46.653831429748536,77.42666419555664,46.20416142974854,77.63285419555665,45.730701429748535,77.63285419555665C44.83754142974853,77.63285419555665,44.11350142974854,76.91328419555664,44.11350142974854,76.02564419555664C44.11350142974854,75.13801419555664,44.83754142974853,74.41844419555665,45.730701429748535,74.41844419555665ZM54.95320142974853,76.51488419555665C54.711201429748535,78.00090419555664,53.42020142974854,79.09298419555664,51.90550142974853,79.09298419555664C50.20040142974854,79.09298419555664,48.81808142974853,77.71926419555665,48.81808142974853,76.02469419555663C48.81808142974853,74.33011419555665,50.20040142974854,72.95639419555664,51.90550142974853,72.95639419555664C52.910901429748534,72.95639419555664,53.85340142974854,73.44294419555663,54.431501429748536,74.26046419555664C54.23870142974853,74.17232419555664,54.029101429748536,74.12668419555663,53.81690142974853,74.12668419555663C53.00500142974853,74.12668419555663,52.346701429748535,74.78083419555664,52.346701429748535,75.58777419555665C52.346701429748535,76.39471419555665,53.00500142974853,77.04887419555664,53.81690142974853,77.04887419555664C54.257001429748534,77.04887419555664,54.674001429748536,76.85293419555664,54.95320142974853,76.51488419555665Z" fill-rule="evenodd" fill="#FFFFFF" fill-opacity="1"/></g></g></g></g></svg>